<svg xmlns:inkscape="http://www.inkscape.org/namespaces/inkscape" xmlns:sodipodi="http://sodipodi.sourceforge.net/DTD/sodipodi-0.dtd" xmlns="http://www.w3.org/2000/svg" xmlns:svg="http://www.w3.org/2000/svg" width="166.4003mm" height="49.469666mm" viewBox="0 0 166.4003 49.469666" id="svg675" inkscape:version="1.2.2 (732a01da63, 2022-12-09)" sodipodi:docname="logo_cyberbrain.svg"><defs id="defs672"></defs><g inkscape:label="Camada 1" inkscape:groupmode="layer" id="layer1" transform="translate(-22.823939,-17.776205)"><g id="g1096" inkscape:export-filename="logo_cyberbrain_250.png" inkscape:export-xdpi="38.133141" inkscape:export-ydpi="38.133141"><path id="path518" style="fill:#000000;stroke-width:0.144359" d="m 46.528178,17.777554 c -2.665347,-0.04605 -5.388821,1.088072 -7.373194,3.091801 -1.029837,1.039876 -1.04039,1.045908 -1.588016,0.918807 -0.303195,-0.0704 -1.076076,-0.129552 -1.716692,-0.131258 -2.05705,-0.0062 -3.638279,0.655514 -5.129402,2.146639 -1.259252,1.259251 -2.141882,3.064536 -2.154907,4.407999 -0.0037,0.388823 -0.111226,0.50419 -0.877466,0.943095 -1.968636,1.127639 -3.171826,3.381926 -2.968811,5.560901 0.07658,0.821856 0.04284,0.945416 -0.625802,2.311486 -0.911035,1.86128 -1.153984,2.80057 -1.25212,4.8364 -0.135613,2.81332 0.497985,5.11169 2.053622,7.44967 1.253654,1.88412 2.856739,3.23863 5.021399,4.24212 1.455092,0.67454 2.777116,1.00802 4.406449,1.11208 1.102575,0.0704 2.933953,-0.09703 3.520198,-0.32195 0.137707,-0.0529 0.381876,0.20551 0.733806,0.77567 2.863341,4.63899 9.343871,5.75528 13.633276,2.34972 l 0.757577,-0.60151 0.897619,0.23254 c 0.493699,0.12793 1.276328,0.27534 1.739429,0.32815 l 0.842326,0.09612 0.349333,0.86093 c 0.91386,2.2516 2.761875,3.66559 6.584094,5.03897 1.714772,0.61615 2.302411,0.98216 3.73879,2.32544 0.683793,0.63949 1.374194,1.14464 1.752347,1.2826 0.958456,0.3497 2.747755,0.25394 3.631303,-0.1943 1.325089,-0.67227 2.226386,-2.04102 2.366264,-3.59461 0.08389,-0.93147 -0.335852,-2.36895 -1.182357,-4.04988 l -0.500227,-0.99271 c -1.361058,-1.46389 -2.085343,-2.24917 -2.601909,-2.8174 -0.476905,-0.40673 -0.894007,-0.88087 -1.236617,-1.4087 -0.153778,0.23296 -0.20418,0.1221 -0.167948,-0.27388 -0.133584,-0.22997 -0.254541,-0.4683 -0.359668,-0.7152 -1.02206,1.63218 -1.771964,2.65735 -1.720309,2.64583 2.514096,1.41262 4.927445,5.78547 5.13302,6.41305 0.33404,1.01964 0.204375,1.67773 -0.450618,2.29546 -0.442829,0.41765 -0.59774,0.47439 -1.293978,0.47439 -0.780993,0 -0.804905,-0.01205 -1.848983,-1.00045 -1.391872,-1.3174 -2.381694,-1.93278 -4.216797,-2.62207 -3.146154,-1.18175 -4.245626,-1.84297 -4.970756,-2.98638 l -0.430464,-0.67799 1.33997,-0.25942 c 1.461775,-0.28258 1.971064,-0.55744 2.176611,-1.17409 0.167442,-0.50233 -0.03582,-0.98893 -0.555005,-1.32911 -0.361351,-0.23676 -0.445837,-0.23596 -1.702738,0.0279 -1.88258,0.39513 -4.39058,0.36057 -5.942273,-0.08216 -2.041403,-0.58248 -2.083282,-0.57767 -3.080949,0.33951 -0.479195,0.44055 -1.216014,0.9759 -1.637626,1.19011 -3.473646,1.76479 -7.585559,0.4188 -9.296591,-3.04323 -0.977114,-1.97706 -0.996966,-4.02238 -0.05943,-6.09006 0.238115,-0.52516 0.432531,-1.11062 0.432531,-1.30173 0,-0.51498 -0.610875,-1.05627 -1.192692,-1.05627 -0.751983,0 -1.351418,0.72003 -1.830379,2.2009 -0.189485,0.58586 -0.343421,0.63377 -1.12758,0.34933 -0.972481,-0.35275 -1.767334,-1.43792 -1.767334,-2.41225 0,-0.30753 -0.138551,-0.5871 -0.439249,-0.8878 -0.366954,-0.36693 -0.514818,-0.42368 -0.902271,-0.34934 -0.254859,0.0488 -0.617834,0.26377 -0.806152,0.47801 -0.305534,0.34762 -0.332589,0.48126 -0.253215,1.24075 0.223995,2.14309 1.65934,3.80479 3.758944,4.35167 0.467765,0.12188 0.86767,0.23827 0.888835,0.25942 0.02114,0.0211 0.05989,0.49155 0.0863,1.04438 l 0.04806,1.00459 -0.576709,0.1049 c -1.87683,0.34179 -4.215285,-0.03601 -6.135543,-0.99218 -1.561512,-0.77752 -3.346695,-2.57783 -4.150134,-4.1858 -0.822297,-1.64571 -1.100595,-3.00049 -1.013375,-4.92838 0.06556,-1.44948 0.470761,-3.16604 0.837159,-3.54448 0.0746,-0.0771 0.369992,0.08841 0.718302,0.40307 1.006581,0.90938 1.740144,0.99492 2.31097,0.26924 0.520569,-0.6618 0.3862,-1.07769 -0.697115,-2.15853 -0.762231,-0.76051 -1.02712,-1.13669 -1.175122,-1.670697 -0.671477,-2.422647 1.324596,-4.819924 3.772379,-4.530989 0.87737,0.103577 1.640452,0.505772 2.349728,1.238684 0.461086,0.47646 0.670388,0.589628 1.092956,0.589628 0.534277,0 1.004374,-0.355971 1.200444,-0.910022 0.361041,-1.020217 -1.823029,-2.849618 -3.923275,-3.286105 -0.735068,-0.15273 -0.766672,-0.178584 -0.679545,-0.545186 0.201432,-0.84759 0.850405,-1.917968 1.535824,-2.534212 0.93289,-0.838752 2.006061,-1.241785 3.305741,-1.241785 h 0.998389 l -0.210323,0.595313 c -0.222771,0.631393 -0.268803,1.250711 -0.120923,1.636075 0.142746,0.371998 0.885439,0.686117 1.369425,0.57981 0.495024,-0.108695 0.738811,-0.434654 1.073836,-1.439705 1.010007,-3.029976 4.164084,-5.275235 7.399032,-5.266862 1.109471,0.0031 2.445693,0.334337 3.51038,0.871781 0.813546,0.410685 0.872458,0.473762 0.787549,0.831991 -0.05049,0.213048 -0.13041,0.819937 -0.177767,1.349271 -0.08041,0.898976 -0.06147,0.987562 0.286804,1.335836 0.84717,0.847172 2.115012,0.178901 2.121834,-1.118278 0.0062,-1.178157 0.899348,-2.463535 2.086695,-3.002917 0.720747,-0.32742 2.059534,-0.349846 2.78691,-0.04651 1.17813,0.491392 1.974264,1.632034 2.177645,3.119189 0.08998,0.657924 0.207752,0.96434 0.447001,1.158069 0.326219,0.264156 0.932995,0.340593 1.369425,0.173116 0.319634,-0.122651 0.656291,-0.813745 0.656291,-1.347204 0,-0.526017 0.09985,-0.53786 1.702738,-0.216008 2.01421,0.404452 4.525803,1.849231 5.692159,3.274736 1.065705,1.302485 1.921481,2.916704 2.171961,4.063834 0.735482,-0.341864 1.545753,-0.551753 2.401404,-0.596863 -1.572056,-5.463527 -6.53407,-9.376492 -12.112439,-9.423714 -0.768676,-0.0062 -0.809034,-0.02753 -1.261939,-0.643371 -1.845125,-2.508952 -5.930508,-2.932861 -8.382434,-0.869715 l -0.445967,0.376205 -1.343071,-0.641305 c -1.531527,-0.730956 -2.27998,-0.935719 -3.856612,-1.0573 -0.176932,-0.01395 -0.354579,-0.0217 -0.532267,-0.0248 z" inkscape:export-filename="logo_cyberbrain_texto_linhas.svg" inkscape:export-xdpi="72" inkscape:export-ydpi="72"></path><g id="g524" transform="matrix(1.8116049,0,0,1.8116049,-71.783449,11.161491)"><circle style="fill:#000000;stroke-width:1.14669" id="circle520" cx="57.538231" cy="18.276249" r="2.0193338"></circle><circle style="fill:#ffffff;stroke-width:0.478999" id="circle522" cx="57.538231" cy="18.276249" r="0.84351915"></circle></g><g id="g530" transform="matrix(1.6727624,0,0,1.6727624,-50.934468,6.5726562)"><circle style="fill:#000000;stroke-width:1.14669" id="circle526" cx="57.538231" cy="18.276249" r="2.0193338"></circle><circle style="fill:#ffffff;stroke-width:0.478999" id="circle528" cx="57.538231" cy="18.276249" r="0.84351915"></circle></g><g id="g536" transform="matrix(1.8224141,0,0,1.8224141,-65.66781,-6.3426888)"><circle style="fill:#000000;stroke-width:1.14669" id="circle532" cx="57.538231" cy="18.276249" r="2.0193338"></circle><circle style="fill:#ffffff;stroke-width:0.478999" id="circle534" cx="57.538231" cy="18.276249" r="0.84351915"></circle></g><g id="g542" transform="matrix(1.8224141,0,0,1.8224141,-48.356144,9.8907322)"><circle style="fill:#000000;stroke-width:1.14669" id="circle538" cx="57.538231" cy="18.276249" r="2.0193338"></circle><circle style="fill:#ffffff;stroke-width:0.478999" id="circle540" cx="57.538231" cy="18.276249" r="0.84351915"></circle></g><g aria-label="CYBERBRAIN" id="text548" style="font-weight:bold;font-size:31.7348px;font-family:'Open Sans';-inkscape-font-specification:'Open Sans Bold';text-align:center;text-anchor:middle;stroke-width:1.08511"><path d="m 78.628412,46.070969 v 3.17348 c 0,1.58674 -0.698166,2.157967 -1.808884,2.157967 -1.110718,0 -1.808884,-0.571227 -1.808884,-2.157967 V 37.248695 c 0,-1.58674 0.698166,-2.189701 1.808884,-2.189701 1.110718,0 1.808884,0.602961 1.808884,2.189701 v 2.38011 h 3.300419 v -2.157967 c 0,-3.554297 -1.777149,-5.585325 -5.204507,-5.585325 -3.427359,0 -5.204508,2.031028 -5.204508,5.585325 v 11.551468 c 0,3.554297 1.777149,5.585325 5.204508,5.585325 3.427358,0 5.204507,-2.031028 5.204507,-5.585325 v -2.951337 z" style="font-family:'Bebas Neue';-inkscape-font-specification:'Bebas Neue Bold'" id="path404"></path><path d="m 86.974664,54.353752 h 3.490828 V 46.991278 L 94.876629,32.139392 H 91.544475 L 88.878752,42.262793 86.213029,32.139392 h -3.649502 l 4.411137,14.851886 z" style="font-family:'Bebas Neue';-inkscape-font-specification:'Bebas Neue Bold'" id="path406"></path><path d="m 101.54094,32.139392 h -5.267981 v 22.21436 h 5.490121 c 3.49083,0 5.29971,-1.840618 5.29971,-5.267977 v -1.808883 c 0,-2.348376 -0.7299,-4.03032 -2.60225,-4.76022 1.555,-0.729901 2.25317,-2.189702 2.25317,-4.474607 v -0.79337 c 0,-3.427359 -1.55501,-5.109303 -5.17277,-5.109303 z m -0.22215,12.217898 c 1.58674,0 2.25317,0.634696 2.25317,2.697458 v 1.935823 c 0,1.650209 -0.63469,2.189701 -1.80888,2.189701 H 99.763787 V 44.35729 Z m 0.12694,-9.044418 c 1.23766,0 1.77715,0.698166 1.77715,2.284906 v 1.237657 c 0,1.777149 -0.79337,2.348375 -2.0945,2.348375 h -1.364593 v -5.870938 z" style="font-family:'Bebas Neue';-inkscape-font-specification:'Bebas Neue Bold'" id="path408"></path><path d="m 112.64812,35.312872 h 6.02961 v -3.17348 h -9.52044 v 22.21436 h 9.52044 v -3.17348 h -6.02961 v -6.505634 h 4.79195 v -3.17348 h -4.79195 z" style="font-family:'Bebas Neue';-inkscape-font-specification:'Bebas Neue Bold'" id="path410"></path><path d="m 131.689,54.353752 c -0.34908,-0.825105 -0.38082,-1.618475 -0.38082,-2.697458 v -3.427358 c 0,-2.316641 -0.57122,-3.998585 -2.31664,-4.728486 1.55501,-0.7299 2.28491,-2.221436 2.28491,-4.506341 v -1.745414 c 0,-3.427359 -1.55501,-5.109303 -5.17277,-5.109303 h -5.26798 v 22.21436 h 3.49083 v -9.044418 h 1.20592 c 1.58674,0 2.28491,0.761635 2.28491,2.824397 v 3.490828 c 0,1.808884 0.12693,2.157967 0.31734,2.729193 z m -5.68053,-19.04088 c 1.23766,0 1.77715,0.698166 1.77715,2.284906 v 2.189701 c 0,1.777149 -0.79337,2.348375 -2.0945,2.348375 h -1.36459 v -6.822982 z" style="font-family:'Bebas Neue';-inkscape-font-specification:'Bebas Neue Bold'" id="path412"></path><path d="m 138.86108,32.139392 h -5.26798 v 22.21436 h 5.49012 c 3.49083,0 5.29972,-1.840618 5.29972,-5.267977 v -1.808883 c 0,-2.348376 -0.7299,-4.03032 -2.60226,-4.76022 1.55501,-0.729901 2.25317,-2.189702 2.25317,-4.474607 v -0.79337 c 0,-3.427359 -1.555,-5.109303 -5.17277,-5.109303 z m -0.22214,12.217898 c 1.58674,0 2.25317,0.634696 2.25317,2.697458 v 1.935823 c 0,1.650209 -0.6347,2.189701 -1.80889,2.189701 h -1.99929 V 44.35729 Z m 0.12694,-9.044418 c 1.23765,0 1.77714,0.698166 1.77714,2.284906 v 1.237657 c 0,1.777149 -0.79337,2.348375 -2.09449,2.348375 h -1.3646 v -5.870938 z" style="font-family:'Bebas Neue';-inkscape-font-specification:'Bebas Neue Bold'" id="path414"></path><path d="m 157.33074,54.353752 c -0.34909,-0.825105 -0.38082,-1.618475 -0.38082,-2.697458 v -3.427358 c 0,-2.316641 -0.57123,-3.998585 -2.31664,-4.728486 1.555,-0.7299 2.2849,-2.221436 2.2849,-4.506341 v -1.745414 c 0,-3.427359 -1.555,-5.109303 -5.17277,-5.109303 h -5.26798 v 22.21436 h 3.49083 v -9.044418 h 1.20592 c 1.58674,0 2.28491,0.761635 2.28491,2.824397 v 3.490828 c 0,1.808884 0.12694,2.157967 0.31735,2.729193 z m -5.68053,-19.04088 c 1.23765,0 1.77715,0.698166 1.77715,2.284906 v 2.189701 c 0,1.777149 -0.79337,2.348375 -2.0945,2.348375 h -1.3646 v -6.822982 z" style="font-family:'Bebas Neue';-inkscape-font-specification:'Bebas Neue Bold'" id="path416"></path><path d="m 166.97813,32.139392 h -5.1093 l -3.5543,22.21436 h 3.20522 l 0.60296,-4.03032 h 4.2842 l 0.60296,4.03032 h 3.52256 z m -2.72919,3.935115 1.68195,11.234119 H 162.567 Z" style="font-family:'Bebas Neue';-inkscape-font-specification:'Bebas Neue Bold'" id="path418"></path><path d="m 172.15089,54.353752 h 3.49083 v -22.21436 h -3.49083 z" style="font-family:'Bebas Neue';-inkscape-font-specification:'Bebas Neue Bold'" id="path420"></path><path d="m 185.6382,54.353752 h 3.58603 v -22.21436 h -3.11001 v 13.296881 l -3.58603,-13.296881 h -4.3794 v 22.21436 h 3.14174 V 38.264208 Z" style="font-family:'Bebas Neue';-inkscape-font-specification:'Bebas Neue Bold'" id="path422"></path></g><g aria-label="CONSULTING" id="text552" style="font-weight:bold;font-size:9.64013px;font-family:'Open Sans';-inkscape-font-specification:'Open Sans Bold';text-align:center;letter-spacing:-0.810376px;text-anchor:middle;stroke-width:0.443748"><path d="m 136.13288,58.5387 c -2.04371,0 -3.59577,1.4653 -3.59577,3.412606 0,1.956946 1.52314,3.451166 3.53793,3.451166 0.98329,0 2.01478,-0.472366 2.72815,-1.205016 l -0.89653,-0.973653 c -0.482,0.482006 -1.14717,0.790491 -1.7545,0.790491 -1.15682,0 -2.05335,-0.906173 -2.05335,-2.082268 0,-1.176096 0.89653,-2.072628 2.05335,-2.072628 0.62661,0 1.29178,0.347044 1.7545,0.877251 l 0.88689,-1.079694 C 138.12839,58.972506 137.10653,58.5387 136.13288,58.5387 Z" style="font-weight:600;font-family:Montserrat;-inkscape-font-specification:'Montserrat Semi-Bold'" id="path472"></path><path d="m 141.90671,58.5387 c -2.06298,0 -3.62469,1.455659 -3.62469,3.422246 0,1.956946 1.56171,3.441526 3.62469,3.441526 2.06299,0 3.62469,-1.49422 3.62469,-3.441526 0,-1.956946 -1.5617,-3.422246 -3.62469,-3.422246 z m 0.0193,1.330338 c 1.1279,0 2.04371,0.906172 2.04371,2.091908 0,1.185736 -0.91581,2.111188 -2.04371,2.111188 -1.12789,0 -2.08226,-0.925452 -2.08226,-2.111188 0,-1.185736 0.94473,-2.091908 2.08226,-2.091908 z" style="font-weight:600;font-family:Montserrat;-inkscape-font-specification:'Montserrat Semi-Bold'" id="path474"></path><path d="M 151.83544,65.334991 V 58.5869 h -1.44602 v 4.338059 L 147.11178,58.5869 h -1.38818 v 6.748091 h 1.45566 v -4.328418 l 3.268,4.328418 z" style="font-weight:600;font-family:Montserrat;-inkscape-font-specification:'Montserrat Semi-Bold'" id="path476"></path><path d="m 154.97752,58.51942 c -1.5617,0 -2.61248,0.77121 -2.61248,1.995506 0,2.390753 3.59577,1.648463 3.59577,2.92096 0,0.414525 -0.37596,0.645889 -1.00257,0.645889 -0.71337,0 -1.69666,-0.395246 -2.39075,-1.012214 l -0.60733,1.243577 c 0.76157,0.645888 1.87018,1.070054 2.9788,1.070054 1.49422,0 2.64139,-0.71337 2.64139,-2.034067 0.01,-2.429313 -3.58612,-1.735224 -3.58612,-2.978801 0,-0.366324 0.34704,-0.549487 0.85797,-0.549487 0.53985,0 1.38818,0.269924 2.10155,0.694089 l 0.58804,-1.262857 c -0.67481,-0.443446 -1.61954,-0.732649 -2.56427,-0.732649 z" style="font-weight:600;font-family:Montserrat;-inkscape-font-specification:'Montserrat Semi-Bold'" id="path478"></path><path d="m 163.80726,58.5869 h -1.52314 v 3.923533 c 0,0.973653 -0.59768,1.561701 -1.50386,1.561701 -0.90617,0 -1.54242,-0.588048 -1.54242,-1.561701 V 58.5869 h -1.52314 v 3.923533 c 0,1.783424 1.19538,2.892039 3.06556,2.892039 1.86055,0 3.027,-1.108615 3.027,-2.892039 z" style="font-weight:600;font-family:Montserrat;-inkscape-font-specification:'Montserrat Semi-Bold'" id="path480"></path><path d="M 165.87929,64.004654 V 58.5869 h -1.52314 v 6.748091 h 4.41518 v -1.330337 z" style="font-weight:600;font-family:Montserrat;-inkscape-font-specification:'Montserrat Semi-Bold'" id="path482"></path><path d="M 173.84143,59.878678 V 58.5869 h -5.63948 v 1.291778 h 2.05335 v 5.456313 h 1.52314 v -5.456313 z" style="font-weight:600;font-family:Montserrat;-inkscape-font-specification:'Montserrat Semi-Bold'" id="path484"></path><path d="M 175.37361,65.334991 V 58.5869 h -1.52315 v 6.748091 z" style="font-weight:600;font-family:Montserrat;-inkscape-font-specification:'Montserrat Semi-Bold'" id="path486"></path><path d="M 182.16929,65.334991 V 58.5869 h -1.44602 v 4.338059 L 177.44562,58.5869 h -1.38817 v 6.748091 h 1.45566 v -4.328418 l 3.268,4.328418 z" style="font-weight:600;font-family:Montserrat;-inkscape-font-specification:'Montserrat Semi-Bold'" id="path488"></path><path d="m 187.37436,61.932026 v 1.773783 c -0.43381,0.221723 -0.91582,0.366325 -1.3207,0.366325 -1.19538,0 -2.13047,-0.915812 -2.13047,-2.111188 0,-1.185736 0.92545,-2.101548 2.12083,-2.101548 0.65553,0 1.34962,0.289203 1.8509,0.75193 l 0.85797,-1.089335 c -0.68444,-0.597688 -1.7063,-0.983293 -2.70887,-0.983293 -2.10155,0 -3.68253,1.47494 -3.68253,3.422246 0,1.956946 1.55206,3.441526 3.59577,3.441526 0.93509,0 2.02442,-0.356684 2.73779,-0.877251 v -2.593195 z" style="font-weight:600;font-family:Montserrat;-inkscape-font-specification:'Montserrat Semi-Bold'" id="path490"></path></g><g id="g558" transform="matrix(1.527291,0,0,1.527291,-15.465909,0.04946416)"><circle style="fill:#000000;stroke-width:1.14669" id="circle554" cx="57.538231" cy="18.276249" r="2.0193338"></circle><circle style="fill:#ffffff;stroke-width:0.478999" id="circle556" cx="57.538231" cy="18.276249" r="0.84351915"></circle></g><g id="g564" transform="matrix(1.7249551,0,0,1.7249551,-52.36408,18.463196)"><circle style="fill:#000000;stroke-width:1.14669" id="circle560" cx="57.538231" cy="18.276249" r="2.0193338"></circle><circle style="fill:#ffffff;stroke-width:0.478999" id="circle562" cx="57.538231" cy="18.276249" r="0.84351915"></circle></g><path style="fill:#ffe680;stroke:#000000;stroke-width:2.09232;stroke-dasharray:none;stroke-opacity:1" d="m 41.57347,26.975776 13.083384,2.159098" id="path566" sodipodi:nodetypes="cc"></path><path style="fill:#ffe680;stroke:#000000;stroke-width:2.09232;stroke-dasharray:none;stroke-opacity:1" d="m 45.755018,39.397904 0.848743,8.0495" id="path568" sodipodi:nodetypes="cc"></path><path style="fill:#ffe680;stroke:#000000;stroke-width:2.09232;stroke-dasharray:none;stroke-opacity:1" d="m 34.729816,43.038354 8.497722,-4.7378" id="path570" sodipodi:nodetypes="cc"></path><path style="fill:#ffe680;stroke:#000000;stroke-width:2.09232;stroke-dasharray:none;stroke-opacity:1" d="m 48.902563,48.744564 6.33376,-4.13744" id="path572" sodipodi:nodetypes="cc"></path><path style="fill:#ffe680;stroke:#000000;stroke-width:2.09232;stroke-dasharray:none;stroke-opacity:1" d="m 47.378385,36.073734 7.89339,-4.981305" id="path574" sodipodi:nodetypes="cc"></path><path style="fill:#ffe680;stroke:#000000;stroke-width:2.09232;stroke-dasharray:none;stroke-opacity:1" d="M 59.546188,29.237088 70.485802,27.901935" id="path576" sodipodi:nodetypes="cc"></path><g id="g582" transform="matrix(1.6939612,0,0,1.6939612,-29.84382,23.13497)"><circle style="fill:#000000;stroke-width:1.14669" id="circle578" cx="57.538231" cy="18.276249" r="2.0193338"></circle><circle style="fill:#ffffff;stroke-width:0.478999" id="circle580" cx="57.538231" cy="18.276249" r="0.84351915"></circle></g><path style="fill:#ffe680;stroke:#000000;stroke-width:2.09232;stroke-dasharray:none;stroke-opacity:1" d="m 66.218875,51.828084 -6.848609,-6.9168" id="path584" sodipodi:nodetypes="cc"></path><path style="fill:#000000;stroke:#000000;stroke-width:2.26462;stroke-dasharray:none;stroke-opacity:1" d="M 38.032744,29.450091 33.54579,42.005674" id="path586" sodipodi:nodetypes="cc"></path><path style="fill:#000000;stroke:#000000;stroke-width:2.26462;stroke-dasharray:none;stroke-opacity:1" d="m 49.223651,50.557884 15.994171,2.99446" id="path588" sodipodi:nodetypes="cc"></path><g id="g594" transform="matrix(1.8224141,0,0,1.8224141,-46.88006,-3.3517848)"><circle style="fill:#000000;stroke-width:1.14669" id="circle590" cx="57.538231" cy="18.276249" r="2.0193338"></circle><circle style="fill:#ffffff;stroke-width:0.478999" id="circle592" cx="57.538231" cy="18.276249" r="0.84351915"></circle></g><path style="fill:#000000;stroke:#000000;stroke-width:2.26462;stroke-dasharray:none;stroke-opacity:1" d="m 57.579712,31.754945 -0.257526,9.013249" id="path596" sodipodi:nodetypes="cc"></path><path style="fill:#000000;stroke:#000000;stroke-width:2.26462;stroke-dasharray:none;stroke-opacity:1" d="m 47.391983,38.308234 7.480831,4.0437" id="path598" sodipodi:nodetypes="cc"></path><path style="fill:#000000;stroke:#000000;stroke-width:2.26462;stroke-dasharray:none;stroke-opacity:1" d="m 40.566874,28.918352 3.493473,6.199883" id="path600" sodipodi:nodetypes="cc"></path><g id="g606" transform="matrix(1.6003539,0,0,1.6003539,-25.192751,7.4097192)"><circle style="fill:#000000;stroke-width:1.14669" id="circle602" cx="57.538231" cy="18.276249" r="2.0193338"></circle><circle style="fill:#ffffff;stroke-width:0.478999" id="circle604" cx="57.538231" cy="18.276249" r="0.84351915"></circle></g><path style="fill:#ffe680;stroke:#000000;stroke-width:2.09232;stroke-dasharray:none;stroke-opacity:1" d="m 59.661109,30.456135 5.709705,4.984806" id="path608" sodipodi:nodetypes="cc"></path><path style="fill:#ffe680;stroke:#000000;stroke-width:2.09232;stroke-dasharray:none;stroke-opacity:1" d="M 67.508062,52.108334 67.049349,39.137964" id="path610" sodipodi:nodetypes="cc"></path><path style="fill:#ffe680;stroke:#000000;stroke-width:2.09232;stroke-dasharray:none;stroke-opacity:1" d="m 68.012526,35.012579 3.408862,-5.123148" id="path612" sodipodi:nodetypes="cc"></path></g></g></svg>